<?xml version="1.0" encoding="utf-8"?><svg viewBox="0 0 74 74" xmlns="http://www.w3.org/2000/svg" xmlns:xlink="http://www.w3.org/1999/xlink"><style>:root>svg{display:none}:root>svg:target{display:block}</style><svg viewBox="0 0 74 74" id="box-search" xmlns="http://www.w3.org/2000/svg"><path d="M36.998 41.008c-.4 0-.801-.092-1.171-.308L8.6 24.944a2.318 2.318 0 01-.833-3.176c.647-1.11 2.035-1.48 3.176-.833l26.054 15.078 25.9-14.985c1.11-.647 2.528-.247 3.176.833.647 1.11.247 2.528-.832 3.175L38.2 40.7c-.401.185-.802.308-1.203.308z"/><path d="M37 68.943a2.33 2.33 0 01-2.313-2.312V38.665A2.33 2.33 0 0137 36.352a2.33 2.33 0 012.313 2.313v27.966A2.33 2.33 0 0137 68.943z"/><path d="M36.997 70.146c-2.806 0-5.489-.647-7.524-1.788l-16.465-9.126c-4.47-2.467-7.986-8.418-7.986-13.536V28.244c0-5.118 3.515-11.038 7.986-13.536l16.465-9.126c4.194-2.344 10.792-2.344 15.016 0l16.465 9.126c4.47 2.467 7.986 8.418 7.986 13.536v11.285a2.33 2.33 0 01-2.313 2.312 2.33 2.33 0 01-2.312-2.312V28.244c0-3.392-2.62-7.831-5.58-9.466L42.268 9.652c-2.806-1.573-7.708-1.573-10.514 0L15.29 18.778c-2.99 1.665-5.58 6.074-5.58 9.466v17.452c0 3.391 2.62 7.832 5.58 9.466l16.465 9.126c2.713 1.51 7.832 1.51 10.514 0a2.321 2.321 0 013.145.895 2.32 2.32 0 01-.894 3.144c-2.035 1.172-4.718 1.82-7.523 1.82z"/><path d="M59.2 68.296c-6.722 0-12.18-5.458-12.18-12.18 0-6.721 5.458-12.178 12.18-12.178 6.722 0 12.18 5.457 12.18 12.179 0 6.721-5.458 12.179-12.18 12.179zm0-19.734c-4.163 0-7.554 3.392-7.554 7.555 0 4.162 3.392 7.554 7.554 7.554 4.162 0 7.554-3.392 7.554-7.554 0-4.163-3.392-7.554-7.554-7.554z"/><path d="M70.915 70.146a2.287 2.287 0 01-1.634-.678l-3.083-3.084a2.327 2.327 0 010-3.269 2.326 2.326 0 013.268 0l3.083 3.084a2.327 2.327 0 010 3.269 2.287 2.287 0 01-1.634.678z"/></svg><svg viewBox="0 0 74 74" id="chart" xmlns="http://www.w3.org/2000/svg"><path d="M31.173 55.962H19.488a2.33 2.33 0 01-2.313-2.313V37.862c0-3.206 2.62-5.827 5.828-5.827h8.17a2.33 2.33 0 012.313 2.312v19.27c0 1.296-1.048 2.345-2.313 2.345zM21.8 51.337h7.06V36.69h-5.857c-.648 0-1.203.524-1.203 1.202v13.444z"/><path d="M42.826 55.962H31.14a2.33 2.33 0 01-2.312-2.313V23.864c0-3.207 2.62-5.828 5.827-5.828h4.687c3.207 0 5.828 2.621 5.828 5.828v29.785c-.031 1.264-1.049 2.313-2.344 2.313zm-9.342-4.625h7.06V23.864c0-.648-.524-1.203-1.202-1.203h-4.687c-.647 0-1.202.524-1.202 1.203v27.473h.03z"/><path d="M54.515 55.962H42.83a2.33 2.33 0 01-2.312-2.313V39.62a2.33 2.33 0 012.312-2.312H51c3.207 0 5.828 2.621 5.828 5.828V53.65a2.31 2.31 0 01-2.313 2.313zm-9.373-4.625h7.06v-8.202c0-.648-.523-1.203-1.202-1.203h-5.858v9.405z"/><path d="M46.25 70.146h-18.5c-16.742 0-23.896-7.154-23.896-23.896v-18.5c0-16.742 7.154-23.896 23.896-23.896h18.5c16.742 0 23.896 7.154 23.896 23.896v18.5c0 16.742-7.154 23.896-23.896 23.896zM27.75 8.479c-14.214 0-19.27 5.057-19.27 19.271v18.5c0 14.214 5.056 19.27 19.27 19.27h18.5c14.214 0 19.27-5.056 19.27-19.27v-18.5c0-14.214-5.056-19.27-19.27-19.27h-18.5z"/></svg><svg viewBox="0 0 74 74" id="code" xmlns="http://www.w3.org/2000/svg"><path d="M27.753 54.729c-.34 0-.71-.093-1.018-.247a15.47 15.47 0 01-5.889-5.21 5.449 5.449 0 010-6.075 15.142 15.142 0 015.89-5.18c1.14-.586 2.528-.092 3.114 1.048.585 1.141.123 2.529-1.049 3.115a10.614 10.614 0 00-4.1 3.638.892.892 0 000 .956 10.614 10.614 0 004.1 3.638 2.352 2.352 0 011.049 3.114 2.472 2.472 0 01-2.097 1.203zm19.142 0a2.287 2.287 0 01-2.066-1.264c-.586-1.141-.123-2.529 1.048-3.115a10.614 10.614 0 004.101-3.638.892.892 0 000-.956 10.614 10.614 0 00-4.1-3.638 2.352 2.352 0 01-1.049-3.114 2.352 2.352 0 013.114-1.048 15.47 15.47 0 015.89 5.21 5.448 5.448 0 010 6.075 15.142 15.142 0 01-5.89 5.18c-.37.215-.709.308-1.048.308z"/><path d="M46.25 70.146h-18.5c-16.742 0-23.896-7.154-23.896-23.896v-18.5c0-16.742 7.154-23.896 23.896-23.896h18.5c16.742 0 23.896 7.154 23.896 23.896v18.5c0 16.742-7.154 23.896-23.896 23.896zM27.75 8.479c-14.214 0-19.27 5.057-19.27 19.271v18.5c0 14.214 5.056 19.27 19.27 19.27h18.5c14.214 0 19.27-5.056 19.27-19.27v-18.5c0-14.214-5.056-19.27-19.27-19.27h-18.5z"/><path d="M6.877 27.01a2.33 2.33 0 01-2.312-2.313 2.31 2.31 0 012.312-2.312l59.262-.03a2.33 2.33 0 012.313 2.312 2.31 2.31 0 01-2.313 2.312l-59.262.031z"/></svg><svg viewBox="0 0 74 74" id="wallet" xmlns="http://www.w3.org/2000/svg"><path d="M54.698 70.146H19.302c-7.678 0-13.906-6.229-13.906-13.906V35.49c0-7.678 6.228-13.907 13.906-13.907h35.396c7.678 0 13.906 6.229 13.906 13.906v4.44a2.33 2.33 0 01-2.312 2.313h-6.229c-1.079 0-2.066.4-2.775 1.14l-.03.031c-.864.833-1.265 1.974-1.172 3.145.185 2.035 2.127 3.67 4.347 3.67h5.859a2.33 2.33 0 012.312 2.312v3.67c0 7.707-6.228 13.936-13.906 13.936zM19.302 26.208c-5.119 0-9.281 4.163-9.281 9.281V56.24c0 5.118 4.162 9.28 9.28 9.28h35.397c5.119 0 9.281-4.162 9.281-9.28v-1.357h-3.546c-4.655 0-8.602-3.453-8.972-7.893-.247-2.528.678-5.026 2.528-6.845 1.604-1.634 3.762-2.528 6.074-2.528h3.916v-2.128c0-5.118-4.162-9.28-9.28-9.28H19.301z"/><path d="M7.708 40.577a2.33 2.33 0 01-2.312-2.313v-14.09c0-4.595 2.898-8.757 7.184-10.391l24.482-9.25c2.528-.956 5.334-.617 7.523.925a8.152 8.152 0 013.515 6.721v11.717a2.33 2.33 0 01-2.313 2.312 2.33 2.33 0 01-2.312-2.312V12.179a3.52 3.52 0 00-1.542-2.929c-.986-.678-2.158-.832-3.268-.4L14.183 18.1c-2.497.955-4.193 3.391-4.193 6.073v14.091c.03 1.295-1.017 2.313-2.282 2.313zm52.727 14.307c-4.656 0-8.603-3.453-8.973-7.893-.246-2.56.679-5.057 2.529-6.876 1.572-1.604 3.73-2.498 6.043-2.498h6.413c3.053.093 5.396 2.498 5.396 5.458v6.351a5.457 5.457 0 01-5.303 5.458h-6.105zm5.95-12.642h-6.32c-1.08 0-2.066.401-2.775 1.141-.894.863-1.326 2.035-1.203 3.207.185 2.035 2.128 3.669 4.348 3.669h6.043c.401 0 .771-.37.771-.833v-6.351c0-.463-.37-.802-.863-.833z"/><path d="M43.167 39.313H21.583A2.33 2.33 0 0119.271 37a2.33 2.33 0 012.312-2.313h21.584A2.33 2.33 0 0145.479 37a2.33 2.33 0 01-2.312 2.313z"/></svg></svg>